<?xml version="1.0" standalone="no"?>
<!DOCTYPE svg PUBLIC "-//W3C//DTD SVG 20010904//EN"
 "http://www.w3.org/TR/2001/REC-SVG-20010904/DTD/svg10.dtd">
<svg version="1.0" xmlns="http://www.w3.org/2000/svg"
 width="512.000000pt" height="512.000000pt" viewBox="0 0 512.000000 512.000000"
 preserveAspectRatio="xMidYMid meet">
<metadata>
Created by potrace 1.16, written by Peter Selinger 2001-2019
</metadata>
<g transform="translate(0.000000,512.000000) scale(0.100000,-0.100000)"
fill="currentColor" stroke="none">
<path d="M2255 5108 c-105 -12 -298 -51 -409 -83 -994 -288 -1724 -1155 -1835
-2177 -14 -125 -14 -451 0 -576 128 -1181 1080 -2133 2261 -2261 125 -14 451
-14 576 0 1181 128 2133 1080 2261 2261 14 125 14 451 0 576 -128 1181 -1080
2133 -2261 2261 -115 13 -479 12 -593 -1z m1073 -922 c39 -20 50 -51 27 -76
-24 -27 -65 -37 -170 -44 -114 -8 -179 -25 -282 -76 -166 -82 -309 -251 -444
-525 -43 -88 -79 -163 -79 -166 0 -3 64 -9 143 -12 167 -7 284 -24 496 -73
420 -96 526 -113 773 -122 197 -8 213 -13 188 -60 -47 -83 -357 -191 -599
-209 l-90 -6 -15 -41 c-157 -428 -265 -643 -440 -876 -221 -295 -577 -549
-995 -711 l-108 -42 -32 -116 c-43 -154 -74 -221 -101 -221 -32 0 -43 42 -44
173 l-1 118 -25 -6 c-122 -25 -298 -32 -362 -14 -68 18 -51 33 92 84 124 44
302 115 313 125 4 3 30 119 58 256 73 367 222 958 318 1262 l20 64 -32 -5
c-18 -3 -74 -11 -124 -18 -109 -14 -123 -8 -123 53 0 133 157 286 359 349 l55
16 51 114 c225 504 525 767 935 819 89 12 201 5 238 -14z m450 -18 c22 -18 13
-53 -29 -109 -85 -113 -194 -371 -289 -684 -23 -77 -44 -141 -45 -143 -3 -3
-247 51 -431 96 l-112 27 38 85 c155 350 390 595 682 711 94 37 153 42 186 17z"/>
<path d="M2229 2863 c-20 -53 -197 -660 -298 -1023 -56 -201 -106 -378 -111
-394 l-10 -28 38 28 c416 308 649 623 791 1069 41 128 90 340 81 348 -9 9
-262 27 -370 27 l-110 0 -11 -27z"/>
</g>
</svg>
